<svg id="ePWotuB32g91" xmlns="http://www.w3.org/2000/svg" xmlns:xlink="http://www.w3.org/1999/xlink" viewBox="0 0 160 24" shape-rendering="geometricPrecision" text-rendering="geometricPrecision"><ellipse rx="11" ry="11" transform="translate(80 12)" fill="#fff" stroke-width="0"/><text dx="0" dy="0" font-family="&quot;ePWotuB32g91:::Roboto&quot;" font-size="16" font-weight="700" transform="translate(96.000433 17.908794)" fill="#fff" stroke-width="0"><tspan y="0" font-weight="700" stroke-width="0"><![CDATA[
ESCAPE 
]]></tspan></text><text dx="0" dy="0" font-family="&quot;ePWotuB32g91:::Roboto&quot;" font-size="16" font-weight="700" transform="translate(20.488147 17.908794)" fill="#fff" stroke-width="0"><tspan y="0" font-weight="700" stroke-width="0"><![CDATA[
RATE
]]></tspan></text><g transform="translate(68 0)"><path d="M24,0v24h-24L0,0h24ZM12.594,23.258l-.012.002-.071.035-.02.004-.014-.004-.071-.036c-.01-.003-.019,0-.024.006l-.004.01-.017.428.005.02.01.013.104.074.015.004.012-.004.104-.074.012-.016.004-.017-.017-.427c-.002-.01-.009-.017-.016-.018Zm.264-.113l-.014.002-.184.093-.01.01-.003.011.018.43.005.012.008.008.201.092c.012.004.023,0,.029-.008l.004-.014-.034-.614c-.003-.012-.01-.02-.02-.022Zm-.715.002c-.009332-.004239-.020342-.001793-.027.006l-.006.014-.034.614c0,.012.007.02.017.024l.015-.002.201-.093.01-.008.003-.011.018-.43-.003-.012-.01-.01-.184-.092Z" fill="none" fill-rule="evenodd"/><path d="M12,2C6.477,2,2,6.477,2,12s4.477,10,10,10s10-4.477,10-10-4.477-10-10-10Zm1.673,10.357c-.147481.125358-.220973.317191-.195.509l.425,2.552c.024092.144912-.016761.293086-.111711.405177s-.234388.176755-.381289.176823h-2.82c-.146901-.000068-.286339-.064732-.381289-.176823s-.135803-.260265-.111711-.405177l.425-2.552c.025973-.191809-.047519-.383642-.195-.509-.768801-.692737-1.031325-1.787539-.660289-2.753598s1.298927-1.603657,2.333789-1.603657s1.962752.637597,2.333789,1.603657.108512,2.060861-.660289,2.753598h-.001Z" fill="#99291e" fill-rule="evenodd"/></g>
</svg>
